<svg xmlns="http://www.w3.org/2000/svg" width="1140" height="810" viewBox="0 0 1140 810" font-family="DejaVu Sans, Arial, Helvetica, sans-serif">
<rect x="0" y="0" width="1140" height="810" rx="0" fill="#FFFFFF" fill-opacity="1.0" stroke="none" stroke-width="1"/>
<text x="20" y="24.8" font-size="16" fill="#5A2C13" text-anchor="start" font-weight="bold">A03 – Produtos</text>
<text x="20" y="47.6" font-size="12" fill="#6B6B6B" text-anchor="start">Estado padrão – ativos e inativos; produto vendido é desativado, não excluído (RN-23)</text>
<rect x="14" y="70" width="1112" height="728" rx="12" fill="#E9E9E9" fill-opacity="1.0" stroke="#333333" stroke-width="3"/>
<circle cx="36" cy="94" r="6" fill="#E57373" stroke="none" stroke-width="1"/>
<circle cx="56" cy="94" r="6" fill="#FFD54F" stroke="none" stroke-width="1"/>
<circle cx="76" cy="94" r="6" fill="#81C784" stroke="none" stroke-width="1"/>
<text x="570.0" y="94.8" font-size="11" fill="#6B6B6B" text-anchor="middle">Cupcake Haven – Painel do Administrador (tela de computador)</text>
<rect x="20" y="112" width="1100" height="680" rx="0" fill="#FFFFFF" fill-opacity="1.0" stroke="none" stroke-width="1"/>
<rect x="20" y="112" width="1100" height="58" rx="0" fill="#7A3E1D" fill-opacity="1.0" stroke="none" stroke-width="1"/>
<circle cx="50" cy="141" r="14" fill="#F6EDE6" stroke="none" stroke-width="1"/>
<text x="50" y="144.2" font-size="14" fill="#7A3E1D" text-anchor="middle" font-weight="bold">C</text>
<text x="74" y="137.6" font-size="17" fill="#FFFFFF" text-anchor="start" font-weight="bold">Cupcake Haven</text>
<text x="74" y="154.8" font-size="11" fill="#F0DCCF" text-anchor="start">Painel do Administrador</text>
<text x="350" y="143.2" font-size="14" fill="#FFFFFF" text-anchor="start">Pedidos</text>
<rect x="448.5546875" y="124" width="99.41796875" height="34" rx="8" fill="#5A2C13" fill-opacity="1.0" stroke="none" stroke-width="1"/>
<text x="462.5546875" y="143.2" font-size="14" fill="#FFFFFF" text-anchor="start" font-weight="bold">Produtos</text>
<text x="1010" y="142.4" font-size="13" fill="#FFFFFF" text-anchor="end">Olá, Administrador</text>
<rect x="1028" y="126" width="76" height="30" rx="8" fill="none" fill-opacity="1.0" stroke="#FFFFFF" stroke-width="1.2"/>
<text x="1066" y="143.4" font-size="13" fill="#FFFFFF" text-anchor="middle" font-weight="bold">Sair</text>
<text x="52" y="209.6" font-size="22" fill="#222222" text-anchor="start" font-weight="bold">Produtos</text>
<rect x="908" y="188" width="180" height="40" rx="10" fill="#7A3E1D" fill-opacity="1.0" stroke="none" stroke-width="1.5"/>
<text x="998.0" y="210.3" font-size="13" fill="#FFFFFF" text-anchor="middle" font-weight="bold">+ Novo produto</text>
<rect x="52" y="248" width="1036" height="40" rx="6" fill="#FAF7F4" fill-opacity="1.0" stroke="#E3D8CF" stroke-width="1"/>
<text x="66" y="270.6" font-size="12" fill="#5A2C13" text-anchor="start" font-weight="bold">Nome</text>
<text x="296" y="270.6" font-size="12" fill="#5A2C13" text-anchor="start" font-weight="bold">Categoria</text>
<text x="446" y="270.6" font-size="12" fill="#5A2C13" text-anchor="start" font-weight="bold">Preço</text>
<text x="566" y="270.6" font-size="12" fill="#5A2C13" text-anchor="start" font-weight="bold">Estoque</text>
<text x="666" y="270.6" font-size="12" fill="#5A2C13" text-anchor="start" font-weight="bold">Situação</text>
<text x="896" y="270.6" font-size="12" fill="#5A2C13" text-anchor="start" font-weight="bold">Ações</text>
<line x1="52" y1="334" x2="1088" y2="334" stroke="#EAEAEA" stroke-width="1"/>
<text x="66" y="313.4" font-size="13" fill="#222222" text-anchor="start">Red Velvet</text>
<text x="296" y="313.4" font-size="13" fill="#222222" text-anchor="start">Clássicos</text>
<text x="446" y="313.4" font-size="13" fill="#222222" text-anchor="start">R$ 12,50</text>
<text x="566" y="313.4" font-size="13" fill="#222222" text-anchor="start">8</text>
<rect x="666" y="301" width="46.26953125" height="21" rx="10.5" fill="#E8F5E9" fill-opacity="1.0" stroke="#2E7D32" stroke-width="0.8"/>
<text x="673" y="313.8" font-size="11" fill="#2E7D32" text-anchor="start" font-weight="bold">Ativo</text>
<text x="896" y="312.6" font-size="12" fill="#7A3E1D" text-anchor="start" font-weight="bold">Editar</text>
<text x="960" y="312.6" font-size="12" fill="#C62828" text-anchor="start" font-weight="bold">Desativar</text>
<line x1="52" y1="380" x2="1088" y2="380" stroke="#EAEAEA" stroke-width="1"/>
<text x="66" y="359.4" font-size="13" fill="#222222" text-anchor="start">Chocolate Belga</text>
<text x="296" y="359.4" font-size="13" fill="#222222" text-anchor="start">Clássicos</text>
<text x="446" y="359.4" font-size="13" fill="#222222" text-anchor="start">R$ 14,00</text>
<text x="566" y="359.4" font-size="13" fill="#222222" text-anchor="start">12</text>
<rect x="666" y="347" width="46.26953125" height="21" rx="10.5" fill="#E8F5E9" fill-opacity="1.0" stroke="#2E7D32" stroke-width="0.8"/>
<text x="673" y="359.8" font-size="11" fill="#2E7D32" text-anchor="start" font-weight="bold">Ativo</text>
<text x="896" y="358.6" font-size="12" fill="#7A3E1D" text-anchor="start" font-weight="bold">Editar</text>
<text x="960" y="358.6" font-size="12" fill="#C62828" text-anchor="start" font-weight="bold">Desativar</text>
<line x1="52" y1="426" x2="1088" y2="426" stroke="#EAEAEA" stroke-width="1"/>
<text x="66" y="405.4" font-size="13" fill="#222222" text-anchor="start">Baunilha Clássico</text>
<text x="296" y="405.4" font-size="13" fill="#222222" text-anchor="start">Clássicos</text>
<text x="446" y="405.4" font-size="13" fill="#222222" text-anchor="start">R$ 10,00</text>
<text x="566" y="405.4" font-size="13" fill="#222222" text-anchor="start">0</text>
<rect x="666" y="393" width="137.39453125" height="21" rx="10.5" fill="#FFF4E0" fill-opacity="1.0" stroke="#8A5300" stroke-width="0.8"/>
<text x="673" y="405.8" font-size="11" fill="#8A5300" text-anchor="start" font-weight="bold">Ativo · sem estoque</text>
<text x="896" y="404.6" font-size="12" fill="#7A3E1D" text-anchor="start" font-weight="bold">Editar</text>
<text x="960" y="404.6" font-size="12" fill="#C62828" text-anchor="start" font-weight="bold">Desativar</text>
<line x1="52" y1="472" x2="1088" y2="472" stroke="#EAEAEA" stroke-width="1"/>
<text x="66" y="451.4" font-size="13" fill="#222222" text-anchor="start">Limão Siciliano</text>
<text x="296" y="451.4" font-size="13" fill="#222222" text-anchor="start">Frutados</text>
<text x="446" y="451.4" font-size="13" fill="#222222" text-anchor="start">R$ 13,00</text>
<text x="566" y="451.4" font-size="13" fill="#222222" text-anchor="start">5</text>
<rect x="666" y="439" width="46.26953125" height="21" rx="10.5" fill="#E8F5E9" fill-opacity="1.0" stroke="#2E7D32" stroke-width="0.8"/>
<text x="673" y="451.8" font-size="11" fill="#2E7D32" text-anchor="start" font-weight="bold">Ativo</text>
<text x="896" y="450.6" font-size="12" fill="#7A3E1D" text-anchor="start" font-weight="bold">Editar</text>
<text x="960" y="450.6" font-size="12" fill="#C62828" text-anchor="start" font-weight="bold">Desativar</text>
<line x1="52" y1="518" x2="1088" y2="518" stroke="#EAEAEA" stroke-width="1"/>
<text x="66" y="497.4" font-size="13" fill="#222222" text-anchor="start">Frutas Vermelhas</text>
<text x="296" y="497.4" font-size="13" fill="#222222" text-anchor="start">Frutados</text>
<text x="446" y="497.4" font-size="13" fill="#222222" text-anchor="start">R$ 13,50</text>
<text x="566" y="497.4" font-size="13" fill="#222222" text-anchor="start">9</text>
<rect x="666" y="485" width="46.26953125" height="21" rx="10.5" fill="#E8F5E9" fill-opacity="1.0" stroke="#2E7D32" stroke-width="0.8"/>
<text x="673" y="497.8" font-size="11" fill="#2E7D32" text-anchor="start" font-weight="bold">Ativo</text>
<text x="896" y="496.6" font-size="12" fill="#7A3E1D" text-anchor="start" font-weight="bold">Editar</text>
<text x="960" y="496.6" font-size="12" fill="#C62828" text-anchor="start" font-weight="bold">Desativar</text>
<line x1="52" y1="564" x2="1088" y2="564" stroke="#EAEAEA" stroke-width="1"/>
<text x="66" y="543.4" font-size="13" fill="#222222" text-anchor="start">Pistache Especial</text>
<text x="296" y="543.4" font-size="13" fill="#222222" text-anchor="start">Especiais</text>
<text x="446" y="543.4" font-size="13" fill="#222222" text-anchor="start">R$ 16,00</text>
<text x="566" y="543.4" font-size="13" fill="#222222" text-anchor="start">0</text>
<rect x="666" y="531" width="57.10546875" height="21" rx="10.5" fill="#EEEEEE" fill-opacity="1.0" stroke="#555555" stroke-width="0.8"/>
<text x="673" y="543.8" font-size="11" fill="#555555" text-anchor="start" font-weight="bold">Inativo</text>
<text x="896" y="542.6" font-size="12" fill="#7A3E1D" text-anchor="start" font-weight="bold">Editar</text>
<text x="960" y="542.6" font-size="12" fill="#7A3E1D" text-anchor="start" font-weight="bold">Reativar</text>
<text x="52" y="589.6" font-size="12" fill="#6B6B6B" text-anchor="start">Produto inativo não aparece no cardápio. Estoque 0 aparece como "Indisponível" para o cliente.</text>
</svg>